<svg viewBox="0 0 19.3626 19.3626" fill="none" xmlns="http://www.w3.org/2000/svg" x="0" y="0"><path id="Vector_5" d="M18.3,0h-16.5716c-0.7938,0 -1.4357,0.6267 -1.4357,1.40154v16.63996c0,0.7749 0.6419,1.4054 1.4357,1.4054h16.5716c0.7938,0 1.4395,-0.6305 1.4395,-1.4016v-16.64376c0,-0.77483 -0.6457,-1.40154 -1.4395,-1.40154zM6.0621,16.5716h-2.8866v-9.28283h2.8866zM4.6188,6.02397c-0.9267,0 -1.675,-0.74825 -1.675,-1.67122c0,-0.92296 0.7483,-1.67121 1.675,-1.67121c0.923,0 1.6712,0.74825 1.6712,1.67121c0,0.91917 -0.7482,1.67122 -1.6712,1.67122zM16.8643,16.5716h-2.8829v-4.5123c0,-1.0749 -0.019,-2.46121 -1.5003,-2.46121c-1.5003,0 -1.7282,1.17361 -1.7282,2.38531v4.5882h-2.879v-9.28283h2.7651v1.26861h0.038c0.3836,-0.72926 1.3256,-1.5003 2.7271,-1.5003c2.9208,0 3.4602,1.9219 3.4602,4.42112z" fill="currentColor"/></svg>