<svg viewBox="0 0 1280 2485" fill="none" xmlns="http://www.w3.org/2000/svg" id="40cb4512" x="0" y="0"><g id="Terms of use" data-node-id="1113:101" clip-path="url(#clip0_1113_101)"><g id="Mask group" data-node-id="1113:260">
<mask id="mask0_1113_101" style="mask-type:alpha" maskUnits="userSpaceOnUse" x="0" y="0" width="1280" height="1833">
<g id="Rectangle 2" data-node-id="1113:261">
<rect y="0" width="1280" height="1833" fill="black" fill-opacity="0.8" x="0"/>
</g>
</mask>
<g mask="url(#mask0_1113_101)">
<g id="Ellipse 32" data-node-id="1113:262" filter="url(#filter0_f_1113_101)">
<path d="M1713.5,1046.5c0,674.89 -398.61,1129.5 -1073.5,1129.5c-674.892,0 -1222,-547.11 -1222,-1222c0,-674.892 429.108,-1159.5 1104,-1159.5c674.89,0 1191.5,577.108 1191.5,1252z" fill="black"/>
</g>
<g id="Ellipse 31" data-node-id="1113:263" filter="url(#filter1_f_1113_101)">
<path d="M1455.4,-46.7836c0,287.2666 417.03,801.5666 0,801.5666c-417.04,0 -1152.656,148.197 -1152.656,-139.07c0,-287.266 0.219,-874.934 417.254,-874.934c417.032,0 735.402,-74.829 735.402,212.4374z" fill="black"/>
</g>
</g>
</g><g mask="url(#mask1_1113_101)"><g id="Ellipse 32_2" data-node-id="1113:256" filter="url(#filter2_f_1113_101)">
<path d="M1750.5,859c0,674.89 -398.61,1129.5 -1073.5,1129.5c-674.89197,0 -1222,-547.11 -1222,-1222c0,-674.892 429.108,-1159.5 1104,-1159.5c674.89,0 1191.5,577.108 1191.5,1252z" fill="url(#paint0_linear_1113_101)"/>
</g><g id="Ellipse 31_2" data-node-id="1113:254" filter="url(#filter3_f_1113_101)">
<path d="M1536.21,-221.054c0,253.1516 415.78,706.375 0,706.375c-415.79,0 -1149.21,130.598 -1149.21,-122.554c0,-253.152 0.218,-771.03 416.007,-771.03c415.793,0 733.203,-65.943 733.203,187.209z" fill="url(#paint1_linear_1113_101)"/>
</g></g><g id="CV Logo" data-node-id="1113:120" clip-path="url(#clip1_1113_101)">
<path id="Vector" data-node-id="1113:121" d="M81.1646,32l-3.3769,9.26h-23.4967v-9.26z" fill="#F9F9FB"/>
<path id="Vector_2" data-node-id="1113:122" d="M83.6219,63.74l-3.5488,9.26h-35.0731v-24.5859l3.2455,-4.7257h6.046v20.0516z" fill="#F9F9FB"/>
<path id="Vector_3" data-node-id="1113:123" d="M109.999,32l-14.9228,41h-10.7676l15.014,-41z" fill="#F9F9FB"/>
</g><g id="Group 29" data-node-id="1113:269">
<rect id="Rectangle 42" data-node-id="1113:270" x="-9.00195" y="1833" width="1370" height="657" fill="url(#paint3_linear_1113_101)"/>
<g id="Ellipse 27" data-node-id="1113:271" filter="url(#filter5_f_1113_101)">
<ellipse cx="79.4465" cy="2061.21" rx="214.819" ry="232.204" transform="rotate(86.3394, 79.4465, 2061.21)" fill="#001D26"/>
</g>
<g id="Ellipse 26" data-node-id="1113:272" filter="url(#filter6_f_1113_101)">
<ellipse cx="1321.87" cy="2445.36" rx="113.226" ry="237.722" transform="rotate(5.60232, 1321.87, 2445.36)" fill="#00BA76"/>
</g>
<g id="Group 22" data-node-id="1113:273">
<path id="Vector_4" data-node-id="1113:274" d="M468.816,1946.09l-44.584,122.85h-310.681v-122.85z" stroke="url(#paint4_linear_1113_101)" stroke-miterlimit="10"/>
<path id="Vector_5" data-node-id="1113:275" d="M501.357,2367.17l-46.882,122.76h-463.73672v-328.33l29.45592,-81.09h93.3958v286.66z" stroke="url(#paint5_linear_1113_101)" stroke-miterlimit="10"/>
<path id="Vector_6" data-node-id="1113:276" d="M850.122,1946.09l-197.375,543.85h-142.368l198.576,-543.85z" stroke="url(#paint6_linear_1113_101)" stroke-miterlimit="10"/>
</g>
</g></g><defs><mask id="mask0_1113_101" style="mask-type:alpha" maskUnits="userSpaceOnUse" x="0" y="3" width="1280" height="1833">
<g id="Rectangle 2" data-node-id="1113:261">
<rect y="3" width="1280" height="1833" fill="black" fill-opacity="0.8"/>
</g>
</mask><mask id="mask1_1113_101" style="mask-type:alpha" maskUnits="userSpaceOnUse" x="0" y="0" width="1280" height="1833">
<g id="Rectangle 2_2" data-node-id="1113:110">
<rect y="0" width="1280" height="1833" fill="black" fill-opacity="0.8" x="0"/>
</g>
</mask><filter id="filter0_f_1113_101" x="-782" y="-405.5" width="2695.5" height="2781.5" filterUnits="userSpaceOnUse" color-interpolation-filters="sRGB">
<feFlood flood-opacity="0" result="BackgroundImageFix"/>
<feBlend mode="normal" in="SourceGraphic" in2="BackgroundImageFix" result="shape"/>
<feGaussianBlur stdDeviation="100" result="effect1_foregroundBlur_1113_101"/>
</filter><filter id="filter1_f_1113_101" x="102.744" y="-468" width="1738" height="1461" filterUnits="userSpaceOnUse" color-interpolation-filters="sRGB">
<feFlood flood-opacity="0" result="BackgroundImageFix"/>
<feBlend mode="normal" in="SourceGraphic" in2="BackgroundImageFix" result="shape"/>
<feGaussianBlur stdDeviation="100" result="effect1_foregroundBlur_1113_101"/>
</filter><filter id="filter2_f_1113_101" x="-745" y="-593" width="2695.5" height="2781.5" filterUnits="userSpaceOnUse" color-interpolation-filters="sRGB">
<feFlood flood-opacity="0" result="BackgroundImageFix"/>
<feBlend mode="normal" in="SourceGraphic" in2="BackgroundImageFix" result="shape"/>
<feGaussianBlur stdDeviation="100" result="effect1_foregroundBlur_1113_101"/>
</filter><filter id="filter3_f_1113_101" x="187" y="-616" width="1734" height="1335" filterUnits="userSpaceOnUse" color-interpolation-filters="sRGB">
<feFlood flood-opacity="0" result="BackgroundImageFix"/>
<feBlend mode="normal" in="SourceGraphic" in2="BackgroundImageFix" result="shape"/>
<feGaussianBlur stdDeviation="100" result="effect1_foregroundBlur_1113_101"/>
</filter><filter id="filter5_f_1113_101" x="-352.695" y="1646.3" width="864.285" height="829.803" filterUnits="userSpaceOnUse" color-interpolation-filters="sRGB">
<feFlood flood-opacity="0" result="BackgroundImageFix"/>
<feBlend mode="normal" in="SourceGraphic" in2="BackgroundImageFix" result="shape"/>
<feGaussianBlur stdDeviation="100" result="effect1_foregroundBlur_1113_101"/>
</filter><filter id="filter6_f_1113_101" x="1006.79" y="2008.51" width="630.146" height="873.699" filterUnits="userSpaceOnUse" color-interpolation-filters="sRGB">
<feFlood flood-opacity="0" result="BackgroundImageFix"/>
<feBlend mode="normal" in="SourceGraphic" in2="BackgroundImageFix" result="shape"/>
<feGaussianBlur stdDeviation="100" result="effect1_foregroundBlur_1113_101"/>
</filter><linearGradient id="paint0_linear_1113_101" x1="383" y1="1281.5" x2="204" y2="2037" gradientUnits="userSpaceOnUse">
<stop stop-color="#050906"/>
<stop offset="1" stop-color="#00B068"/>
</linearGradient><linearGradient id="paint1_linear_1113_101" x1="1212.8" y1="-449.607" x2="1266.88" y2="568.569" gradientUnits="userSpaceOnUse">
<stop stop-color="#00482A"/>
<stop offset="1" stop-color="#030303"/>
</linearGradient><linearGradient id="paint3_linear_1113_101" x1="675.998" y1="1833" x2="675.998" y2="2490" gradientUnits="userSpaceOnUse">
<stop stop-color="#01070A"/>
<stop offset="0.553771" stop-color="#021014"/>
<stop offset="1" stop-color="#010A0E"/>
</linearGradient><linearGradient id="paint4_linear_1113_101" x1="113.228" y1="2007.52" x2="469.274" y2="2007.52" gradientUnits="userSpaceOnUse">
<stop stop-color="#00B068"/>
<stop offset="1" stop-color="#001619"/>
</linearGradient><linearGradient id="paint5_linear_1113_101" x1="-9.58442" y1="2285.22" x2="501.822" y2="2285.22" gradientUnits="userSpaceOnUse">
<stop stop-color="#00B068"/>
<stop offset="1" stop-color="#001619"/>
</linearGradient><linearGradient id="paint6_linear_1113_101" x1="509.914" y1="2218.01" x2="850.581" y2="2218.01" gradientUnits="userSpaceOnUse">
<stop stop-color="#00B068"/>
<stop offset="1" stop-color="#001619"/>
</linearGradient><clipPath id="clip0_1113_101">
<rect width="1280" height="2488" fill="white" x="0" y="-3"/>
</clipPath><clipPath id="clip1_1113_101">
<rect width="65" height="41" fill="white" transform="translate(45, 32)"/>
</clipPath></defs></svg>