<svg width="113" height="45" viewBox="0 0 113 45" fill="none" xmlns="http://www.w3.org/2000/svg">
<rect width="113" height="45" fill="#021014"/>
<path d="M22.6617 18.344C22.3093 20.6623 21.4024 22.6558 20.676 24.3751C20.5126 24.7611 20.403 25.1303 20.3085 25.4804C19.9668 26.744 19.9689 27.7777 20.1387 28.5244C20.1645 28.6405 20.1452 28.6742 20.0764 28.5371C19.6638 27.7207 19.7261 26.6723 19.812 26.0605C19.8765 25.6154 20.0184 25.0881 20.2268 24.5185C20.4955 23.7802 20.8565 22.9743 21.1681 22.2107C21.3637 21.7297 21.5163 21.2614 21.6688 20.8395C22.1588 19.481 22.5263 17.5065 22.5263 17.5065C22.5263 17.5065 22.7692 15.9898 22.5564 14.4815C22.5371 14.3486 22.5693 14.4393 22.58 14.471C22.868 15.3844 22.9712 16.3252 22.6639 18.344M21.974 30.7816C22.3866 31.1065 23.2119 31.7456 23.5987 32.1085C23.8523 32.3468 24.3122 32.908 24.4154 33.2328C24.4669 33.3931 24.4068 33.4712 24.3681 33.545C24.3509 33.5788 24.353 33.6568 24.237 33.6315C24.209 33.6252 24.1317 33.6062 24.1059 33.6189C24.0758 33.6336 24.0715 33.6927 24.0672 33.7264C24.0457 33.8783 24.0156 33.8361 23.9103 33.7982C23.8458 33.775 23.6438 33.7644 23.6417 33.8319C23.6374 33.9501 23.5901 33.9058 23.4633 33.8551C23.3387 33.8045 23.2097 33.8214 23.1238 33.8214C23.1001 33.8214 22.9991 33.8298 23.0528 33.8868C23.0851 33.9205 23.1216 33.9543 23.1496 33.9775C23.1775 34.0007 23.2656 34.0745 23.0679 34.1083C22.8594 34.142 22.4511 34.0133 22.2426 33.9353C21.8472 33.7876 21.6194 33.4628 20.6803 33.1506C20.3794 33.0514 19.7454 32.9734 19.436 32.8995C18.8987 32.773 18.1035 32.4734 17.2783 32.4481C17.1708 32.4439 17.188 32.408 17.289 32.3553C17.4567 32.2709 17.779 32.0768 17.9467 31.9524C18.0111 31.9038 18.0305 31.887 17.9789 31.792C17.8371 31.5368 17.3986 31.0727 17.1128 30.866C16.9903 30.7795 16.9688 30.7352 17.1429 30.7879C17.3041 30.8364 17.7167 30.8217 17.8951 30.7837C17.951 30.771 17.9853 30.7478 17.923 30.6171C17.8005 30.3534 17.534 29.8703 17.3729 29.6404C17.317 29.5602 17.274 29.4758 17.4051 29.575C17.5512 29.6847 17.9918 29.9505 18.1852 30.0475C18.2798 30.096 18.3141 30.1171 18.2927 29.9483C18.2561 29.6509 18.1336 29.0012 17.9982 28.7122C17.9595 28.6299 17.9488 28.5603 18.0692 28.6594C18.2217 28.786 18.5785 29.0708 18.7805 29.1974C18.802 29.21 18.8622 29.2311 18.8493 29.1362C18.8407 29.0729 18.7934 28.9358 18.7697 28.8809C18.7461 28.8261 18.7526 28.7966 18.8127 28.8261C18.9481 28.8915 19.2791 29.1088 19.3908 29.0666C19.4252 29.0539 19.5133 28.9442 19.5047 28.8261C19.5004 28.7797 19.5047 28.7143 19.6014 28.805C19.7497 28.9442 20.0613 29.2206 20.2053 29.345C20.6351 29.7184 21.527 30.4293 21.9762 30.7816M16.3112 30.0791C16.0641 30.3281 15.7761 30.3913 15.544 30.4483C15.3011 30.5074 14.7682 30.5728 14.521 30.5221C14.4265 30.5031 14.4609 30.442 14.4759 30.3956C14.5683 30.115 14.6521 29.8787 14.5984 29.0834C14.5769 28.7544 14.4415 28.1996 14.2932 27.7102C14.1944 27.3811 14.0805 27.0794 14.0139 26.8558C13.8527 26.32 13.4529 25.2695 13.2896 24.7337C13.122 24.1852 12.8555 23.1262 12.7545 22.506C12.6664 21.9639 12.5675 20.867 12.589 20.3185C12.6105 19.7173 12.7287 18.7216 12.9608 17.939C13.0403 17.6732 13.0812 17.7217 13.0188 17.939C12.7287 18.9579 12.7588 19.692 12.7416 20.2826C12.7201 21.0589 12.9114 21.9302 12.9909 22.4174C13.0597 22.8457 13.425 24.0628 13.425 24.0628C13.425 24.0628 13.7323 24.9277 13.8484 25.2104C14.0074 25.6028 14.3663 26.3706 14.5533 26.7525C14.6865 27.0246 14.9551 27.5688 15.112 27.8283C15.3893 28.2924 15.66 28.9252 15.9244 29.2332C16.0469 29.3767 16.3929 29.6066 16.4337 29.7901C16.4509 29.8661 16.3714 30.0116 16.3091 30.077M27.9914 17.2998C27.9957 17.2576 27.9721 17.2365 27.9463 17.2829C27.7378 17.6753 27.6153 17.8209 27.2371 18.2449C27.1984 18.2871 27.0866 18.363 27.1726 18.2491C27.669 17.4854 27.8775 16.802 27.9527 15.3696C27.8367 15.6249 27.7271 16.0109 27.2607 16.5467C27.2371 16.5741 27.1748 16.6016 27.2392 16.5003C27.7077 15.6185 27.9183 14.8486 27.8324 13.0028C27.8281 12.931 27.7851 12.9732 27.7808 13.0028C27.6733 13.6061 27.3983 14.4182 26.5709 15.3422C26.5214 15.397 26.4935 15.397 26.5322 15.3338C27.7958 13.4669 27.7743 11.9079 27.5895 10.5431C27.5745 10.5136 27.5594 10.5283 27.5551 10.5579C27.4541 11.2055 27.3381 11.5177 26.7922 12.2898C26.7621 12.3341 26.7235 12.3573 26.7557 12.2792C27.3467 10.8658 27.6282 10.0136 27.222 8.03913C27.2027 7.9885 27.1791 8.02014 27.1748 8.04967C27.0952 8.86816 26.5902 9.77524 26.2163 10.4904C26.1862 10.5199 26.169 10.522 26.1776 10.4482C26.3302 9.34068 25.9713 8.37875 25.6597 7.61512C25.6382 7.58137 25.6188 7.57926 25.6253 7.62988C25.6855 8.10452 25.6597 9.26685 24.9977 10.7519C24.8645 11.0515 24.6646 11.4713 24.4025 11.9079C23.863 12.8066 23.1624 13.8065 22.8702 14.1841C22.6682 14.4414 22.6424 14.4035 22.5134 14.2769C22.4447 14.2094 22.4597 14.2832 22.4597 14.3043C22.7111 17.3061 21.3357 20.1476 20.302 22.2972C19.984 22.9216 19.5391 23.6916 19.191 24.1578C18.7848 24.702 17.7747 25.6365 17.2568 26.4972C16.7539 27.3326 16.3048 28.2164 16.1371 28.7375C16.0813 28.9105 16.0297 28.9273 15.9631 28.8092C15.6686 28.2797 14.8047 26.6786 14.8047 26.6786L14.117 25.2336C14.117 25.2336 12.8168 22.2107 12.8684 19.9536C12.9264 17.4622 14.0676 15.7303 14.5662 14.376C14.9079 13.45 15.1679 12.2708 15.2001 11.5092C15.2797 9.57273 14.6564 7.7438 14.6543 6.88945C14.6543 6.85148 14.6435 6.81773 14.607 6.8557C13.6679 7.93998 14.3556 10.0874 13.3519 11.6C13.2918 11.6928 13.2423 11.7497 13.2166 11.6105C13.1564 10.0853 11.6692 7.81974 11.8798 5.94862C11.8906 5.84736 11.8583 5.87689 11.8111 6.01823C11.7337 6.23973 11.68 6.38528 11.609 6.58357C10.9772 8.36399 11.8283 10.4018 10.8053 12.6231C10.7967 12.6442 10.758 12.718 10.7322 12.6378C10.3647 11.1042 9.08819 8.76901 8.80236 7.44003C8.78087 7.33666 8.76798 7.37885 8.74649 7.42526C7.83958 9.54531 8.88618 11.486 8.53158 13.4479C8.52513 13.4795 8.50579 13.5576 8.44132 13.4753C7.64401 12.2771 6.18695 10.9924 5.23276 9.53265C5.18333 9.45671 5.15539 9.43139 5.14895 9.48202C5.05439 12.2855 6.82092 13.7875 7.31951 16.3991C7.34744 16.5404 7.33025 16.5151 7.26148 16.456C5.89252 15.3169 4.40322 14.8802 2.8387 12.4416C2.8258 12.4227 2.80001 12.4121 2.81076 12.4923C3.24487 15.6523 5.05868 16.5045 5.98493 18.3229C6.01287 18.3841 5.96129 18.3735 5.89682 18.3482C4.25493 17.7112 2.81935 16.8863 2.06288 16.0615C1.98766 15.9793 1.99626 16.0236 2.00701 16.0679C2.80646 18.4178 4.57944 19.1604 5.32947 20.0569C5.366 20.1033 5.34666 20.1223 5.265 20.0949C4.2184 19.7489 3.14386 19.3756 2.33581 18.8967C2.30573 18.8777 2.27134 18.8693 2.29068 18.903C2.55287 19.3861 2.8387 19.7342 3.19544 20.0675C3.83157 20.6581 4.51712 20.9978 4.69119 21.0906C4.72128 21.1074 4.69549 21.1285 4.69549 21.1285C4.69549 21.1285 4.17542 21.175 3.77354 21.0315C3.71981 21.0125 3.71981 21.0315 3.73916 21.061C3.982 21.3247 4.34304 21.6686 4.68904 21.7994C5.28219 22.023 5.90757 22.2571 6.10528 22.4343C6.14182 22.4681 6.12677 22.4828 6.09454 22.4807C5.79367 22.4723 5.13605 22.4913 4.92974 22.3288C4.89321 22.2993 4.87172 22.3141 4.8975 22.3563C5.09737 22.6917 5.366 22.9807 5.56372 23.1811C5.60025 23.2169 5.6024 23.2359 5.54867 23.2338C5.42188 23.2296 5.22201 23.2148 5.07588 23.2127C5.00926 23.2127 4.98562 23.2254 4.99851 23.2634C5.11671 23.6958 5.55082 24.0439 5.73349 24.162C5.79152 24.2 5.78937 24.2126 5.75498 24.2337C5.68191 24.278 5.58521 24.3497 5.52288 24.4637C5.50139 24.5016 5.51214 24.5312 5.53578 24.5501C5.75498 24.721 5.86459 24.8708 5.99138 25.0227C6.00213 25.0353 6.01502 25.0923 6.01502 25.1176C6.01502 25.202 5.98278 25.3771 6.03866 25.4572C6.08594 25.5268 6.26431 25.6344 6.44269 25.6935C6.46203 25.6998 6.50286 25.7188 6.44698 25.7779C6.31374 25.9192 5.96559 26.0732 5.72275 26.1112C5.63893 26.1238 5.65398 26.1597 5.66472 26.1808C5.72919 26.2989 5.84524 26.4803 5.93765 26.5542C5.97419 26.5837 5.96774 26.6132 5.96129 26.6238C5.86888 26.7862 5.70341 27.0246 5.50569 27.1174C5.49495 27.1216 5.47345 27.1385 5.51214 27.1638C5.58521 27.2081 5.7163 27.2566 5.81946 27.3157C5.89252 27.36 5.89037 27.3874 5.87103 27.4212C5.78722 27.5625 5.63249 27.841 5.42403 27.9739C5.35096 28.0203 5.32947 28.035 5.37245 28.0709C5.4756 28.1553 5.67977 28.3725 5.89682 28.3958C5.95055 28.4021 5.9527 28.4464 5.87748 28.497C5.75713 28.5814 5.57661 28.7501 5.38319 28.7818C5.32947 28.7902 5.32087 28.8366 5.33806 28.8704C5.40039 28.9949 5.54867 29.3155 5.74424 29.4252C5.76143 29.4336 5.8259 29.4737 5.75713 29.499C5.69051 29.5243 5.65398 29.5539 5.58306 29.6446C5.53793 29.7057 5.54223 29.7838 5.54867 29.826C5.56801 29.9505 5.67332 30.0369 5.77647 30.2732C5.8302 30.3934 5.86029 30.5348 5.90542 30.5938C5.98064 30.693 6.13967 30.7858 6.34813 30.828C6.39111 30.8364 6.36317 30.8681 6.35457 30.8744C6.2858 30.9377 6.1719 31.0052 6.09454 31.1149C6.06875 31.1529 6.058 31.1866 6.07305 31.2098C6.24067 31.4398 6.38896 31.5579 6.68553 31.6971C6.70487 31.7056 6.70702 31.7245 6.68553 31.7815C6.65974 31.8427 6.60601 31.927 6.55874 31.9882C6.53295 32.022 6.57378 32.0789 6.59097 32.0979C6.68338 32.1971 7.0917 32.292 7.34959 32.3468C7.40332 32.3574 7.42051 32.4165 7.42481 32.427C7.47424 32.5557 7.52367 32.6675 7.52152 32.9523C7.51937 33.2434 7.41621 33.4543 7.44845 33.7665C7.4549 33.8298 7.51292 33.8657 7.55805 33.8889C7.91265 34.064 8.52084 34.1969 9.00653 34.2918C9.06455 34.3023 9.10968 34.3382 9.14836 34.3593C9.27731 34.4331 9.43419 34.6251 9.56098 34.7812C9.57603 34.8002 9.66199 34.9014 9.76515 34.9099C9.81028 34.9141 9.864 34.8972 9.90698 34.8909C9.91988 34.8909 9.96716 34.8803 9.95426 34.9141C9.81458 35.2579 9.59967 35.7832 9.54809 36.2473C9.54164 36.3127 9.51585 36.3528 9.48362 36.3865C9.0753 36.8147 8.57241 37.5214 8.28444 37.9475C8.06523 38.2724 7.99646 38.5424 7.89546 38.7365C7.88686 38.7534 7.86537 38.7829 7.85247 38.7977C7.65046 39.015 7.40762 39.1943 7.02723 39.6478C6.72851 40.0064 6.75645 40.0507 6.71347 40.0866C6.15686 40.5549 5.10381 41.4852 4.41611 41.8185C4.37313 41.8396 4.38817 41.8775 4.40107 41.8902C4.48488 41.9809 4.63747 42.2172 4.86527 42.2467C4.94908 42.2572 4.97487 42.234 4.98132 42.3269C4.99421 42.523 4.98991 42.7741 4.92329 42.9091C4.9061 42.9428 4.94693 42.9471 4.96198 42.9513C5.02 42.9618 5.11241 42.9386 5.15969 42.9281C5.17473 42.9238 5.24136 42.8985 5.21557 42.9618C5.11241 43.2086 5.12316 43.3985 5.13175 43.5504C5.13605 43.6495 5.15539 43.6685 5.17473 43.679C5.265 43.7255 5.38319 43.7444 5.53793 43.7402C5.58521 43.7402 5.5981 43.7655 5.5981 43.7845C5.6067 43.9195 5.611 44.0102 5.67117 44.0714C5.78077 44.1811 6.01072 44.1727 6.15256 44.1495C6.21488 44.141 6.24067 44.1537 6.21703 44.2085C6.13967 44.3899 6.11818 44.6473 6.1719 44.8477C6.18265 44.8899 6.22563 44.8962 6.26001 44.8815C6.5308 44.7697 6.89184 44.5397 7.12179 44.2845C7.13469 44.2697 7.19271 44.2106 7.19916 44.2908C7.21635 44.4828 7.26793 44.603 7.3238 44.7338C7.3324 44.7507 7.35389 44.7739 7.39472 44.7591C7.72998 44.6304 8.22641 44.0102 8.43487 43.7065C8.50579 43.601 8.64978 43.3753 8.69491 43.2635C8.70136 43.2445 8.73574 43.2128 8.75508 43.2171C8.85394 43.2318 9.01942 43.2339 9.10538 43.2171C9.16341 43.2065 9.16556 43.1896 9.17415 43.1707C9.19564 43.1221 9.21284 43.0103 9.21713 42.926C9.21928 42.8774 9.26871 42.888 9.28376 42.8964C9.35897 42.9513 9.48147 43.0821 9.63835 43.139C9.69423 43.1601 9.74151 43.1453 9.76944 43.12C9.8812 43.023 10.023 42.8163 10.1262 42.6348C10.1369 42.6159 10.1885 42.5969 10.2122 42.599C10.3389 42.599 10.4593 42.6201 10.6635 42.407C10.8762 42.1834 10.844 42.0231 10.8354 41.8818C10.8311 41.8037 10.859 41.8396 10.9042 41.81C10.9278 41.7953 10.9772 41.7974 11.0825 41.5042C11.2716 40.9768 11.3555 40.3207 11.435 39.7322C11.4457 39.6605 11.4694 39.633 11.5059 39.6309C11.854 39.6035 12.1076 39.5044 12.3075 39.2533C12.344 39.2069 12.3677 39.1985 12.4386 39.1816C12.8211 39.0867 13.1263 38.9053 13.5475 38.5509C13.584 38.5213 13.5948 38.5466 13.584 38.5888C13.5411 38.7344 13.5217 38.9939 13.5518 39.0719C13.5604 39.0951 13.5733 39.1035 13.5926 39.0867C13.7022 38.9791 13.8183 38.7724 14.2653 38.6205C14.3126 38.6036 14.3534 38.5867 14.3491 38.6268C14.3362 38.7492 14.3233 39.0044 14.3298 39.131C14.3319 39.1816 14.347 39.1943 14.4007 39.1352C14.6242 38.8926 15.1034 38.5466 15.4 38.4116C15.4559 38.3863 15.4967 38.3969 15.5204 38.4137C15.5676 38.4475 15.6171 38.4517 15.6149 38.6374C15.6149 38.6901 15.6472 38.6584 15.6643 38.6458C15.8148 38.5319 16.1715 38.3378 16.3778 38.2851C16.4294 38.2724 16.5111 38.2851 16.5841 38.3209C16.6379 38.3462 16.6551 38.3547 16.6723 38.3969C16.6959 38.4559 16.7152 38.4433 16.7539 38.4053C16.9087 38.2534 17.1472 38.0783 17.4395 38.0003C17.4803 37.9897 17.5362 37.9897 17.5577 38.0045C17.5749 38.0172 17.5792 38.0488 17.5921 38.0636C17.6028 38.0741 17.6264 38.0931 17.6501 38.0699C17.7124 38.0066 17.7425 37.9918 17.7812 37.9897C17.807 37.9897 17.8328 37.9792 17.8693 38.0066C17.9488 38.0657 18.0262 38.1058 18.125 38.1479C18.2325 38.1944 18.2024 38.2197 18.1422 38.2851C17.9638 38.477 17.7468 38.7892 17.7468 38.7892C17.7468 38.7892 17.5039 39.1732 17.6157 39.5044C17.6522 39.6162 17.7232 39.8377 18.1164 39.8545C18.2196 39.8587 18.4667 39.8144 18.6387 39.7258C18.6967 39.6963 18.7096 39.6605 18.6172 39.6816C18.4925 39.7111 18.1637 39.7195 18.1422 39.4284C18.1293 39.2575 18.1358 39.0107 18.673 38.5108C18.7182 38.4686 18.7869 38.3673 18.8751 38.3758C19.0728 38.3969 19.1372 38.361 19.3629 38.2218C19.5821 38.0868 19.5176 37.956 19.6337 37.9286C19.6788 37.918 19.7691 37.9201 19.8013 37.9729C19.8421 38.0383 19.8443 38.072 19.7626 38.2028C19.6143 38.4412 19.2361 38.726 19.2146 39.1689C19.2082 39.2913 19.2275 39.4537 19.4703 39.593C19.5606 39.6457 19.8679 39.6309 20.0785 39.4959C20.1215 39.4685 20.1172 39.439 20.057 39.4622C19.9689 39.4959 19.6659 39.5655 19.6745 39.1795C19.6788 38.958 20.1301 38.4876 20.3343 38.2956C20.3472 38.283 20.3944 38.2619 20.4073 38.2766C20.4783 38.3526 20.6179 38.458 20.6222 38.6226C20.6222 38.7154 20.633 38.726 20.6867 38.688C20.8479 38.4749 20.8608 38.3041 20.8436 38.2176C20.8307 38.1501 20.8608 38.1353 20.8823 38.1163C21.0005 38.0087 21.325 37.7155 21.5098 37.7577C21.6323 37.7851 21.7935 37.9686 21.8429 38.4496C21.8472 38.4897 21.873 38.5087 21.8859 38.4644C21.9482 38.2766 22.0664 38.0425 22.0277 37.7345C22.0105 37.591 21.974 37.4286 21.8923 37.3653C21.8472 37.3295 21.8966 37.3189 21.9418 37.3147C22.0299 37.3105 22.1954 37.416 22.2405 37.4835C22.2727 37.532 22.2942 37.5109 22.2792 37.4581C22.2169 37.243 22.1911 36.838 21.7935 36.6966C21.2283 36.4962 20.9768 36.9012 20.749 36.7747C20.6867 36.7388 20.5556 36.6755 20.4718 36.6354C20.2247 36.5131 20.0484 36.608 19.9431 36.5363C19.8679 36.4857 19.7583 36.4308 19.6659 36.4245C19.5219 36.4139 19.3672 36.608 19.2705 36.5468C18.8127 36.2578 18.4646 35.7326 18.0885 35.1482C18.0348 35.066 18.11 35.0006 18.11 35.0006C18.11 35.0006 18.8686 34.0808 20.8672 34.3867C21.9697 34.5555 24.3401 35.1272 24.7463 36.3253C24.7678 36.3844 24.7936 36.3507 24.8086 36.3317C25.7994 34.9542 25.1074 34.1926 24.8129 33.7201C24.4433 33.1273 24.2628 32.5093 23.5278 31.8532C22.7455 31.1529 21.3014 30.0918 20.7018 29.3661C20.5707 29.2058 20.676 28.8577 20.7834 28.786C20.9382 28.6826 21.9676 28.4485 22.4038 27.8473C22.5242 27.6806 22.464 27.2988 22.5199 27.1237C22.58 26.9318 22.7778 26.6132 22.7735 26.358C22.7692 26.1006 22.4747 25.993 22.7326 25.6429C23.0185 25.2547 23.2484 25.3792 23.4784 25.1155C23.545 25.0395 23.6202 24.8476 23.6095 24.7505C23.5987 24.6409 23.4203 24.6092 23.5063 24.548C23.7083 24.4025 23.9361 24.124 23.9447 23.9236C23.9447 23.873 23.8437 23.7886 23.9447 23.738C24.1381 23.641 24.3186 23.4764 24.4089 23.3372C24.4691 23.2444 24.4068 23.1621 24.4476 23.1305C24.699 22.9322 25.2771 22.6073 25.4405 22.2318C25.4942 22.1284 25.4319 22.0251 25.4791 21.9808C25.9004 21.5969 27.0523 20.5632 27.1576 20.0569C27.164 20.0211 27.1511 20.0021 27.121 20.0105C27.0609 20.0316 26.8696 20.1054 26.9942 19.9852C27.5917 19.4135 27.8625 18.844 28 17.2935" fill="#BBBBBB"/>
<path d="M23.3521 30.3783C23.3963 30.4075 23.4405 30.517 23.5166 30.7482C23.5509 30.848 23.6835 31.0208 23.7572 31.0962C23.8186 31.1595 23.8922 31.2033 24.0936 31.1985C24.1476 31.1985 24.2605 31.1474 24.3489 31.2277C24.511 31.3786 24.538 31.364 24.4103 31.1644C24.1476 30.7628 23.7916 30.4245 23.3791 30.2907C23.1188 30.2055 23.1704 30.259 23.3521 30.3783Z" fill="#BBBBBB"/>
<path d="M41.9364 33.4836H38.9827V31.483H44.3499V38.0736C44.1535 38.1442 43.9031 38.2197 43.5962 38.2975C43.2917 38.3754 42.9504 38.446 42.5723 38.5068C42.1942 38.5677 41.8063 38.6188 41.406 38.6577C41.0058 38.6967 40.6081 38.7161 40.2152 38.7161C39.0342 38.7161 38.0005 38.558 37.1191 38.2416C36.2352 37.9276 35.5011 37.4822 34.9118 36.9103C34.325 36.3384 33.8855 35.6569 33.5933 34.866C33.3011 34.075 33.1562 33.2013 33.1562 32.2448C33.1562 31.5682 33.2348 30.9209 33.387 30.3075C33.5417 29.6918 33.7676 29.1223 34.0672 28.5991C34.3667 28.0758 34.7276 27.6012 35.1549 27.1777C35.5821 26.7543 36.0682 26.3941 36.6182 26.0947C37.1657 25.7954 37.7673 25.5666 38.4204 25.406C39.0735 25.2454 39.7733 25.165 40.5221 25.165C41.1851 25.165 41.8161 25.2113 42.4127 25.3062C43.0093 25.4011 43.5004 25.5179 43.881 25.6542V27.684C43.3678 27.5209 42.8522 27.3968 42.3292 27.314C41.8087 27.2289 41.2808 27.1875 40.748 27.1875C40.0335 27.1875 39.3632 27.2921 38.7396 27.5039C38.1159 27.7156 37.5758 28.0271 37.1191 28.4409C36.6624 28.8546 36.3039 29.3633 36.0412 29.9693C35.7785 30.5753 35.6484 31.2737 35.6484 32.0671C35.6557 33.6101 36.0609 34.7662 36.8687 35.5377C37.6764 36.3092 38.8231 36.6937 40.3061 36.6937C40.5811 36.6937 40.8683 36.6791 41.163 36.6499C41.4601 36.6207 41.7179 36.5842 41.9413 36.5379V33.4836H41.9364Z" fill="#BBBBBB"/>
<path d="M52.2337 30.8455H52.0373C51.3228 30.8455 50.6943 30.9502 50.1517 31.1619C49.609 31.3737 49.1916 31.6974 48.897 32.133V38.468H46.562V29.0081H48.4919L48.7079 30.3272H48.7472C49.0222 29.8453 49.4028 29.4656 49.884 29.1906C50.3677 28.9131 50.9447 28.7769 51.6224 28.7769C51.8581 28.7769 52.0619 28.789 52.2337 28.8158V30.8455Z" fill="#BBBBBB"/>
<path d="M59.7989 33.7466C59.7989 33.2452 59.74 32.8023 59.6221 32.4202C59.5043 32.0357 59.3398 31.7144 59.1286 31.454C58.9175 31.1936 58.6646 30.9989 58.3699 30.8675C58.0753 30.7385 57.7537 30.6728 57.405 30.6728C57.0563 30.6728 56.747 30.7385 56.4548 30.8675C56.1626 30.9989 55.9122 31.1936 55.701 31.454C55.4899 31.7144 55.3278 32.0357 55.2075 32.4202C55.0897 32.8047 55.0307 33.2452 55.0307 33.7466C55.0307 34.2479 55.0897 34.6909 55.2075 35.073C55.3254 35.4575 55.4923 35.7763 55.7059 36.0343C55.9195 36.2923 56.1724 36.487 56.4646 36.6208C56.7568 36.7547 57.076 36.8204 57.4246 36.8204C57.7733 36.8204 58.09 36.7523 58.3798 36.6208C58.6695 36.487 58.9175 36.2923 59.1286 36.0343C59.3398 35.7763 59.5018 35.4575 59.6221 35.073C59.74 34.6884 59.7989 34.2479 59.7989 33.7466ZM62.21 33.7466C62.21 34.4889 62.0995 35.1655 61.8761 35.7763C61.6527 36.3872 61.3335 36.9129 60.9161 37.3485C60.4987 37.7842 59.9953 38.12 59.4036 38.3585C58.8119 38.597 58.1539 38.7139 57.4246 38.7139C56.6954 38.7139 56.0055 38.5946 55.4113 38.3585C54.8171 38.1225 54.3138 37.7842 53.8988 37.3485C53.4863 36.9129 53.1696 36.3872 52.9486 35.7763C52.7277 35.1655 52.6196 34.4889 52.6196 33.7466C52.6196 33.0043 52.7301 32.3277 52.9535 31.7168C53.177 31.106 53.4962 30.5803 53.9136 30.1446C54.331 29.709 54.8343 29.3707 55.426 29.1346C56.0178 28.8961 56.6758 28.7793 57.405 28.7793C58.1342 28.7793 58.8242 28.8986 59.4183 29.1346C60.0125 29.3731 60.5159 29.709 60.9308 30.1446C61.3433 30.5803 61.66 31.1035 61.881 31.7168C62.102 32.3277 62.21 33.0043 62.21 33.7466Z" fill="#BBBBBB"/>
<path d="M67.9526 38.7136C66.9951 38.7136 66.1995 38.553 65.5685 38.2293C64.9375 37.908 64.4612 37.4724 64.1396 36.9272C63.9677 36.6352 63.8425 36.3115 63.7614 35.961C63.6804 35.6081 63.6387 35.2187 63.6387 34.7904V29.0103H65.9737V34.5446C65.9737 34.8634 65.9982 35.1384 66.0424 35.3696C66.0891 35.6008 66.1578 35.8004 66.2487 35.9708C66.4058 36.258 66.6292 36.4697 66.9189 36.6108C67.2087 36.752 67.5524 36.8202 67.9526 36.8202C68.3528 36.8202 68.7309 36.7423 69.0305 36.5865C69.33 36.4308 69.5535 36.1922 69.7057 35.8734C69.8555 35.5668 69.9316 35.1409 69.9316 34.5957V29.0127H72.2666V34.7928C72.2666 35.5619 72.1315 36.2093 71.8614 36.735C71.7117 37.0343 71.5153 37.3069 71.2746 37.5503C71.034 37.7936 70.7517 38.003 70.4276 38.1757C70.1035 38.3485 69.7352 38.4824 69.3251 38.5749C68.9151 38.6698 68.456 38.716 67.9526 38.716" fill="#BBBBBB"/>
<path d="M78.6801 30.6314C78.2725 30.6387 77.887 30.736 77.5187 30.9283C77.1504 31.1206 76.8263 31.3785 76.544 31.7047V35.9223C76.6422 36.0319 76.76 36.1438 76.9 36.2558C77.0375 36.3653 77.1922 36.4675 77.3616 36.5576C77.5335 36.65 77.7201 36.7231 77.9288 36.7815C78.135 36.8399 78.3511 36.8691 78.5745 36.8691C78.9354 36.8691 79.2571 36.7936 79.5394 36.6403C79.8218 36.487 80.0575 36.2704 80.2441 35.9905C80.4307 35.7106 80.5731 35.3772 80.6713 34.9902C80.7695 34.6033 80.8186 34.1725 80.8186 33.6979C80.8186 33.1892 80.7671 32.7439 80.6664 32.3618C80.5658 31.9772 80.4209 31.6584 80.2343 31.4053C80.0477 31.1522 79.8218 30.9599 79.5591 30.8285C79.2964 30.6995 79.0042 30.6338 78.6825 30.6338M78.9845 38.7139C78.4714 38.7139 78.0073 38.6214 77.5899 38.4364C77.1725 38.2514 76.8263 38.0202 76.5513 37.7477H76.5121C76.5194 37.8791 76.5243 38.0616 76.5317 38.3001C76.5391 38.5386 76.5415 38.7966 76.5415 39.0765V43.0119H74.2065V29.0129H76.2543L76.3525 30.0765H76.3918C76.6815 29.6993 77.0522 29.3877 77.504 29.1444C77.9558 28.901 78.4812 28.7793 79.0803 28.7793C79.5984 28.7793 80.1091 28.8742 80.6124 29.0665C81.1157 29.2587 81.5601 29.5532 81.9481 29.9499C82.336 30.3466 82.6454 30.848 82.8786 31.454C83.1119 32.06 83.2273 32.7779 83.2273 33.6103C83.2273 34.4889 83.1021 35.2482 82.8541 35.8907C82.6036 36.5308 82.2771 37.0613 81.8695 37.4824C81.4619 37.9034 81.0102 38.2125 80.5166 38.4145C80.0207 38.6165 79.51 38.7163 78.9845 38.7163" fill="#BBBBBB"/>
<path d="M40.3012 11.2632C39.653 11.2632 39.0564 11.3679 38.5113 11.5796C37.9638 11.7914 37.4948 12.1005 37.1045 12.5045C36.7116 12.9085 36.4072 13.4074 36.1862 13.9988C35.9677 14.5926 35.8572 15.2716 35.8572 16.0334C35.8572 16.7952 35.9578 17.4547 36.1567 18.0291C36.358 18.6034 36.6453 19.0829 37.021 19.4674C37.3966 19.8519 37.8533 20.1416 38.3935 20.3387C38.9336 20.5334 39.5475 20.6332 40.2325 20.6332C40.7236 20.6332 41.2244 20.5942 41.7376 20.5188C42.2483 20.4409 42.7271 20.329 43.1739 20.1829V22.2127C42.7197 22.3417 42.2311 22.4414 41.7081 22.5145C41.1827 22.5875 40.6401 22.624 40.0778 22.624C38.9778 22.624 38.0105 22.4682 37.1757 22.1567C36.3409 21.8452 35.6436 21.4071 35.0837 20.8376C34.5239 20.2705 34.1016 19.5891 33.8217 18.7981C33.5394 18.0072 33.3994 17.1334 33.3994 16.1745C33.3994 15.2157 33.5492 14.2811 33.8512 13.4414C34.1507 12.6018 34.5853 11.8741 35.1525 11.2584C35.7197 10.6426 36.4268 10.1583 37.2788 9.80543C38.1283 9.45254 39.0932 9.27244 40.1662 9.26514C40.7162 9.26514 41.2367 9.30164 41.7302 9.37709C42.2213 9.4501 42.6657 9.55475 43.061 9.68861V11.6891C42.5429 11.5285 42.0617 11.4166 41.6148 11.3533C41.168 11.29 40.7309 11.2584 40.3037 11.2584" fill="#BBBBBB"/>
<path d="M47.0853 12.2561C47.0853 12.738 47.0779 13.1323 47.0607 13.4438C47.0435 13.7553 47.0165 14.0352 46.9772 14.2859H47.0165C47.154 14.1082 47.3185 13.9257 47.5174 13.748C47.7163 13.5679 47.9324 13.4121 48.1681 13.2807C48.4038 13.1493 48.6739 13.0422 48.9734 12.957C49.2729 12.8743 49.6044 12.8329 49.9678 12.8329C50.2796 12.8329 50.5816 12.8645 50.8763 12.923C51.1709 12.9838 51.4459 13.0787 51.7012 13.2077C51.9566 13.3367 52.1898 13.5022 52.401 13.7091C52.6121 13.9135 52.7865 14.1593 52.9289 14.4416C53.0516 14.685 53.1425 14.96 53.2014 15.2691C53.2603 15.5757 53.2898 15.953 53.2898 16.3935V22.3878H50.9892V16.7001C50.9892 16.413 50.9769 16.1769 50.9499 15.9943C50.9229 15.8118 50.8787 15.6536 50.8124 15.5173C50.6774 15.235 50.4834 15.0355 50.2305 14.9211C49.9776 14.8042 49.6903 14.7483 49.3662 14.7483C48.9194 14.7556 48.5069 14.8602 48.1288 15.0671C47.7507 15.2715 47.402 15.5733 47.0853 15.9724V22.3902H44.7847V8.45703H47.0853V12.2585V12.2561Z" fill="#BBBBBB"/>
<path d="M60.7119 18.4136C60.491 18.3625 60.2405 18.3162 59.9532 18.2749C59.6684 18.2335 59.3812 18.2116 59.089 18.2116C58.5267 18.2116 58.0799 18.3235 57.7533 18.5426C57.4268 18.7641 57.2622 19.1023 57.2622 19.5575C57.2622 19.7692 57.2991 19.9542 57.3727 20.1099C57.4464 20.2681 57.5471 20.3971 57.6747 20.4993C57.8 20.6015 57.9473 20.6794 58.1167 20.7305C58.2861 20.7816 58.4629 20.806 58.6495 20.806C58.8827 20.806 59.1037 20.7768 59.31 20.7159C59.5162 20.6551 59.7077 20.5772 59.882 20.4847C60.0564 20.3922 60.2135 20.2876 60.3535 20.1732C60.4934 20.0564 60.6113 19.9444 60.7095 19.8373V18.4136H60.7119ZM60.8961 21.3974H60.8568C60.7267 21.5312 60.572 21.6699 60.3903 21.8111C60.2086 21.9523 60.0024 22.0861 59.7691 22.2102C59.5358 22.3368 59.278 22.4366 58.9932 22.5145C58.7084 22.5899 58.4015 22.6288 58.07 22.6288C57.6232 22.6288 57.2058 22.5607 56.8178 22.422C56.4299 22.2833 56.096 22.0861 55.8185 21.8257C55.5411 21.5653 55.3226 21.2513 55.163 20.8838C55.0034 20.5163 54.9248 20.1026 54.9248 19.6475C54.9248 19.1462 55.0181 18.6983 55.2023 18.2992C55.3864 17.9025 55.6442 17.5642 55.9732 17.2892C56.3022 17.0142 56.6975 16.8025 57.1567 16.6589C57.6158 16.5153 58.1241 16.4423 58.6814 16.4423C59.089 16.4423 59.4646 16.469 59.8084 16.5201C60.1521 16.5712 60.4517 16.6321 60.7119 16.7027V16.3279C60.7119 16.1113 60.6751 15.8995 60.6014 15.6975C60.5278 15.4955 60.4075 15.3154 60.243 15.1572C60.0785 15.0015 59.8624 14.8749 59.5972 14.7824C59.3321 14.69 59.008 14.6437 58.6274 14.6437C58.1609 14.6437 57.6944 14.6948 57.2279 14.797C56.7614 14.8993 56.258 15.055 55.713 15.2595V13.478C56.1844 13.2735 56.6877 13.1153 57.218 13.0058C57.7484 12.8963 58.3057 12.8379 58.8876 12.833C59.5727 12.833 60.1742 12.9158 60.6874 13.0837C61.2005 13.2492 61.6327 13.4804 61.9789 13.7724C62.3251 14.0645 62.5853 14.4101 62.7572 14.8068C62.9291 15.2059 63.015 15.6367 63.015 16.1064V19.6183C63.015 20.234 63.0224 20.7622 63.0346 21.2051C63.0469 21.648 63.0617 22.0423 63.0739 22.3879H60.9967L60.901 21.3974H60.8961Z" fill="#BBBBBB"/>
<path d="M70.7811 14.8725H70.5872C69.8825 14.8725 69.2613 14.9771 68.7285 15.184C68.1957 15.3933 67.7808 15.7121 67.491 16.1429V22.3879H65.1904V13.0642H67.0933L67.3069 14.3638H67.3462C67.6187 13.8893 67.9919 13.5145 68.4682 13.2419C68.9446 12.9693 69.5142 12.833 70.182 12.833C70.4153 12.833 70.6166 12.8452 70.7836 12.8719V14.8725H70.7811Z" fill="#BBBBBB"/>
<path d="M76.7845 22.3785C76.5267 22.4564 76.2174 22.5172 75.8564 22.561C75.498 22.6073 75.1616 22.6292 74.8522 22.6292C74.0616 22.6292 73.4183 22.5026 72.915 22.2495C72.4141 21.9964 72.0581 21.6313 71.8519 21.1568C71.7021 20.816 71.6284 20.3561 71.6284 19.772V10.458H73.929V13.0646H76.647V14.941H73.929V19.4726C73.929 19.8328 73.983 20.0981 74.0935 20.2709C74.2875 20.5654 74.673 20.7138 75.25 20.7138C75.5151 20.7138 75.7779 20.6944 76.0406 20.6505C76.3033 20.6092 76.5513 20.5556 76.7821 20.4924V22.3785H76.7845Z" fill="#BBBBBB"/>
<path d="M82.0435 14.6121C81.7513 14.6121 81.4935 14.6656 81.2676 14.7703C81.0417 14.8774 80.8453 15.0209 80.6808 15.2035C80.5163 15.386 80.3837 15.6002 80.2879 15.8436C80.1897 16.0869 80.1259 16.3473 80.094 16.6224H83.7916C83.7916 16.3473 83.7548 16.0869 83.6812 15.8436C83.6075 15.6002 83.497 15.386 83.3522 15.2035C83.2073 15.0209 83.0256 14.8749 82.8095 14.7703C82.591 14.6656 82.3381 14.6121 82.0459 14.6121M82.9667 20.7914C83.4135 20.7914 83.88 20.7451 84.3637 20.6575C84.8499 20.5675 85.3409 20.4385 85.8394 20.273V22.091C85.5423 22.22 85.0856 22.3417 84.4693 22.456C83.8555 22.5704 83.2171 22.6288 82.5566 22.6288C81.8962 22.6288 81.2578 22.5437 80.6587 22.3733C80.0596 22.2029 79.5391 21.9279 79.0922 21.5507C78.6454 21.171 78.2918 20.6818 78.0291 20.0783C77.7664 19.4747 77.6362 18.7446 77.6362 17.883C77.6362 17.0215 77.759 16.2962 78.0045 15.661C78.2501 15.0258 78.5791 14.5001 78.994 14.084C79.409 13.6678 79.8828 13.3538 80.4156 13.147C80.9484 12.9377 81.5009 12.833 82.0705 12.833C82.6401 12.833 83.2147 12.9231 83.7155 13.1032C84.2164 13.2833 84.651 13.5656 85.0168 13.9501C85.3827 14.3346 85.6675 14.8311 85.8713 15.4371C86.0751 16.0431 86.1757 16.7611 86.1757 17.5886C86.1684 17.9098 86.1585 18.1824 86.1463 18.4063H79.981C80.013 18.8371 80.1112 19.2021 80.2708 19.5088C80.4328 19.813 80.644 20.0612 80.9067 20.2486C81.1694 20.4385 81.4739 20.5748 81.8225 20.6624C82.1712 20.7476 82.5517 20.7914 82.9593 20.7914" fill="#BBBBBB"/>
<path d="M93.5931 14.8725H93.3992C92.6945 14.8725 92.0733 14.9771 91.5405 15.184C91.0077 15.3933 90.5928 15.7121 90.3031 16.1429V22.3879H88.0024V13.0642H89.9053L90.1189 14.3638H90.1582C90.4307 13.8893 90.8039 13.5145 91.2803 13.2419C91.7566 12.9693 92.3262 12.833 92.9941 12.833C93.2273 12.833 93.4286 12.8452 93.5956 12.8719V14.8725H93.5931Z" fill="#BBBBBB"/>
<path d="M98.5679 14.6121C98.2757 14.6121 98.0179 14.6656 97.792 14.7703C97.5662 14.8774 97.3697 15.0209 97.2052 15.2035C97.0407 15.386 96.9081 15.6002 96.8124 15.8436C96.7142 16.0869 96.6503 16.3473 96.6184 16.6224H100.319C100.319 16.3473 100.282 16.0869 100.206 15.8436C100.132 15.6002 100.021 15.386 99.8766 15.2035C99.7317 15.0209 99.55 14.8749 99.334 14.7703C99.1179 14.6656 98.8625 14.6121 98.5728 14.6121M99.4911 20.7914C99.938 20.7914 100.404 20.7451 100.888 20.6575C101.372 20.5675 101.865 20.4385 102.364 20.273V22.091C102.067 22.22 101.61 22.3417 100.994 22.456C100.38 22.5704 99.7415 22.6288 99.0811 22.6288C98.4206 22.6288 97.7822 22.5437 97.1831 22.3733C96.584 22.2029 96.0611 21.9279 95.6142 21.5507C95.1673 21.171 94.8138 20.6818 94.5511 20.0783C94.2883 19.4747 94.1582 18.7446 94.1582 17.883C94.1582 17.0215 94.281 16.2962 94.5265 15.661C94.772 15.0258 95.101 14.5001 95.516 14.084C95.9309 13.6678 96.4048 13.3538 96.9376 13.147C97.4729 12.9377 98.0228 12.833 98.5925 12.833C99.1621 12.833 99.7366 12.9231 100.238 13.1032C100.738 13.2833 101.173 13.5656 101.539 13.9501C101.905 14.3346 102.189 14.8311 102.393 15.4371C102.597 16.0431 102.7 16.7611 102.7 17.5886C102.693 17.9098 102.683 18.1824 102.671 18.4063H96.5055C96.5374 18.8371 96.6356 19.2021 96.7976 19.5088C96.9597 19.813 97.1708 20.0612 97.4336 20.2486C97.6963 20.4385 98.0032 20.5748 98.3518 20.6624C98.7005 20.7476 99.0811 20.7914 99.4887 20.7914" fill="#BBBBBB"/>
<path d="M108.583 20.8083C108.809 20.8083 109.025 20.7791 109.229 20.7231C109.432 20.6647 109.624 20.5893 109.806 20.4919C109.987 20.3946 110.147 20.2899 110.287 20.1731C110.427 20.0563 110.545 19.9443 110.64 19.8372V15.4102C110.368 15.1912 110.063 15.0111 109.727 14.8675C109.391 14.7239 109.035 14.6509 108.659 14.6509C108.421 14.6509 108.168 14.6996 107.908 14.7945C107.645 14.8919 107.407 15.0549 107.188 15.2861C106.972 15.5173 106.79 15.8386 106.643 16.2475C106.498 16.6588 106.425 17.182 106.425 17.8148C106.425 18.7518 106.606 19.4819 106.972 20.0076C107.338 20.5333 107.873 20.801 108.578 20.8059M104.05 17.9121C104.05 17.0968 104.163 16.3716 104.389 15.7339C104.615 15.0963 104.924 14.5584 105.317 14.1252C105.708 13.692 106.157 13.3683 106.663 13.1542C107.166 12.94 107.692 12.8329 108.234 12.8329C108.487 12.8329 108.725 12.8548 108.951 12.9011C109.177 12.9449 109.391 13.0081 109.592 13.0836C109.793 13.1615 109.98 13.2466 110.154 13.344C110.329 13.4389 110.491 13.5387 110.64 13.6433H110.66C110.653 13.5144 110.648 13.3343 110.645 13.0982C110.643 12.8645 110.64 12.609 110.64 12.334V8.45703H112.941V19.6206C112.941 20.2364 112.946 20.7645 112.961 21.2074C112.973 21.6504 112.985 22.0446 113 22.3902H110.923L110.824 21.3997H110.785C110.65 21.5603 110.486 21.7185 110.294 21.8719C110.103 22.0252 109.894 22.159 109.663 22.271C109.432 22.3829 109.182 22.473 108.904 22.5363C108.629 22.5995 108.33 22.6336 108.006 22.6336C107.495 22.6336 107.004 22.5436 106.535 22.3635C106.066 22.1834 105.646 21.9059 105.273 21.5311C104.9 21.1563 104.603 20.6647 104.379 20.0587C104.156 19.4527 104.045 18.7396 104.045 17.917" fill="#BBBBBB"/>
</svg>
