<?xml version="1.0" encoding="UTF-8"?>
<svg id="Layer_2" data-name="Layer 2" xmlns="http://www.w3.org/2000/svg" xmlns:xlink="http://www.w3.org/1999/xlink" viewBox="0 0 113 45">
  <defs>
    <style>
      .cls-1 {
        fill: none;
      }

      .cls-2 {
        fill: #bbb;
      }

      .cls-3 {
        clip-path: url(#clippath);
      }
    </style>
    <clipPath id="clippath">
      <rect class="cls-1" width="113" height="45"/>
    </clipPath>
  </defs>
  <g id="Layer_1-2" data-name="Layer 1">
    <g class="cls-3">
      <g>
        <path class="cls-2" d="M23.6,14.37c-.4,2.67-1.44,4.97-2.27,6.96-.19.45-.31.87-.42,1.28-.39,1.46-.39,2.65-.19,3.51.03.13,0,.17-.07.01-.47-.94-.4-2.15-.3-2.86.07-.51.24-1.12.47-1.78.31-.85.72-1.78,1.08-2.66.22-.55.4-1.1.57-1.58.56-1.57.98-3.85.98-3.85,0,0,.28-1.75.03-3.49-.02-.15.01-.05.03-.01.33,1.05.45,2.14.1,4.47M22.82,28.72c.47.37,1.41,1.11,1.86,1.53.29.27.82.92.93,1.3.06.19,0,.28-.05.36-.02.04-.02.13-.15.1-.03,0-.12-.03-.15-.01-.03.02-.04.09-.04.12-.02.18-.06.13-.18.08-.07-.03-.3-.04-.31.04,0,.14-.06.09-.2.03-.14-.06-.29-.04-.39-.04-.03,0-.14,0-.08.08.04.04.08.08.11.1.03.03.13.11-.09.15-.24.04-.7-.11-.94-.2-.45-.17-.71-.55-1.78-.91-.34-.11-1.07-.2-1.42-.29-.61-.15-1.52-.49-2.47-.52-.12,0-.1-.05.01-.11.19-.1.56-.32.75-.46.07-.06.1-.08.04-.18-.16-.29-.66-.83-.99-1.07-.14-.1-.16-.15.03-.09.18.06.66.04.86,0,.06-.01.1-.04.03-.19-.14-.3-.44-.86-.63-1.13-.06-.09-.11-.19.04-.08.17.13.67.43.89.55.11.06.15.08.12-.11-.04-.34-.18-1.09-.34-1.43-.04-.09-.06-.18.08-.06.17.15.58.47.81.62.02.01.09.04.08-.07,0-.07-.06-.23-.09-.29-.03-.06-.02-.1.05-.06.15.08.53.33.66.28.04-.01.14-.14.13-.28,0-.05,0-.13.11-.02.17.16.53.48.69.62.49.43,1.51,1.25,2.02,1.66M16.35,27.91c-.28.29-.61.36-.88.43-.28.07-.89.14-1.17.09-.11-.02-.07-.09-.05-.15.11-.32.2-.6.14-1.51-.02-.38-.18-1.02-.35-1.58-.11-.38-.24-.73-.32-.99-.18-.62-.64-1.83-.83-2.45-.19-.63-.5-1.85-.61-2.57-.1-.63-.21-1.89-.19-2.52.02-.69.16-1.84.42-2.75.09-.31.14-.25.07,0-.33,1.18-.3,2.02-.32,2.7-.02.9.19,1.9.28,2.46.08.49.5,1.9.5,1.9,0,0,.35,1,.48,1.32.18.45.59,1.34.81,1.78.15.31.46.94.64,1.24.32.54.63,1.27.93,1.62.14.17.54.43.58.64.02.09-.07.26-.14.33M29.69,13.17s-.02-.07-.05-.02c-.24.45-.38.62-.81,1.11-.04.05-.17.14-.07,0,.57-.88.81-1.67.89-3.32-.13.29-.26.74-.79,1.36-.03.03-.1.06-.02-.05.54-1.02.78-1.91.68-4.04,0-.08-.05-.03-.06,0-.12.7-.44,1.63-1.38,2.7-.06.06-.09.06-.04,0,1.44-2.15,1.42-3.95,1.21-5.53-.02-.03-.03-.02-.04.02-.12.75-.25,1.11-.87,2-.03.05-.08.08-.04-.01.68-1.63,1-2.61.53-4.89-.02-.06-.05-.02-.05.01-.09.94-.67,1.99-1.09,2.82-.03.03-.05.04-.04-.05.17-1.28-.24-2.39-.59-3.27-.02-.04-.05-.04-.04.02.07.55.04,1.89-.72,3.6-.15.35-.38.83-.68,1.33-.62,1.04-1.42,2.19-1.75,2.63-.23.3-.26.25-.41.11-.08-.08-.06,0-.06.03.29,3.46-1.28,6.74-2.47,9.22-.36.72-.87,1.61-1.27,2.15-.46.63-1.62,1.71-2.21,2.7-.57.96-1.09,1.98-1.28,2.58-.06.2-.12.22-.2.08-.34-.61-1.32-2.46-1.32-2.46l-.79-1.67s-1.49-3.49-1.43-6.09c.07-2.87,1.37-4.87,1.94-6.43.39-1.07.69-2.43.72-3.31.09-2.23-.62-4.34-.62-5.33,0-.04-.01-.08-.05-.04-1.07,1.25-.29,3.73-1.43,5.47-.07.11-.13.17-.15.01-.07-1.76-1.77-4.37-1.53-6.53.01-.12-.02-.08-.08.08-.09.26-.15.42-.23.65-.72,2.05.25,4.41-.92,6.97,0,.02-.05.11-.08.02-.42-1.77-1.88-4.46-2.2-6-.02-.12-.04-.07-.06-.02-1.04,2.45.16,4.68-.25,6.95,0,.04-.03.13-.1.03-.91-1.38-2.58-2.86-3.67-4.55-.06-.09-.09-.12-.1-.06-.11,3.23,1.91,4.97,2.48,7.98.03.16.01.13-.07.07-1.56-1.31-3.27-1.82-5.05-4.63-.01-.02-.04-.03-.03.06.5,3.65,2.57,4.63,3.63,6.73.03.07-.03.06-.1.03-1.88-.73-3.52-1.69-4.38-2.64-.09-.09-.08-.04-.06,0,.91,2.71,2.94,3.57,3.8,4.6.04.05.02.08-.07.04-1.2-.4-2.42-.83-3.35-1.38-.03-.02-.07-.03-.05,0,.3.56.63.96,1.03,1.34.73.68,1.51,1.07,1.71,1.18.03.02,0,.04,0,.04,0,0-.59.05-1.05-.11-.06-.02-.06,0-.04.03.28.3.69.7,1.09.85.68.26,1.39.53,1.62.73.04.04.02.06-.01.05-.34,0-1.1.01-1.33-.18-.04-.03-.07-.02-.04.03.23.39.54.72.76.95.04.04.04.06-.02.06-.14,0-.37-.02-.54-.02-.08,0-.1.01-.09.06.14.5.63.9.84,1.04.07.04.06.06.02.08-.08.05-.19.13-.27.27-.02.04-.01.08.01.1.25.2.38.37.52.55.01.01.03.08.03.11,0,.1-.04.3.03.39.05.08.26.2.46.27.02,0,.07.03,0,.1-.15.16-.55.34-.83.38-.1.01-.08.06-.07.08.07.14.21.35.31.43.04.03.03.07.03.08-.11.19-.29.46-.52.57-.01,0-.04.02,0,.05.08.05.23.11.35.18.08.05.08.08.06.12-.1.16-.27.48-.51.64-.08.05-.11.07-.06.11.12.1.35.35.6.37.06,0,.06.06-.02.12-.14.1-.34.29-.56.33-.06,0-.07.06-.05.1.07.14.24.51.46.64.02,0,.09.06.01.09-.08.03-.12.06-.2.17-.05.07-.05.16-.04.21.02.14.14.24.26.52.06.14.1.3.15.37.09.11.27.22.51.27.05,0,.02.05,0,.05-.08.07-.21.15-.3.28-.03.04-.04.08-.02.11.19.27.36.4.7.56.02,0,.02.03,0,.1-.03.07-.09.17-.14.24-.03.04.02.1.04.13.11.11.57.22.87.29.06.01.08.08.09.09.06.15.11.28.11.61,0,.34-.12.58-.08.94,0,.07.07.11.13.14.41.2,1.1.36,1.65.46.07.01.12.05.16.08.15.09.33.31.47.49.02.02.12.14.23.15.05,0,.11-.01.16-.02.01,0,.07-.01.05.03-.16.4-.41,1-.46,1.54,0,.08-.04.12-.07.16-.47.49-1.04,1.31-1.37,1.8-.25.37-.33.69-.44.91,0,.02-.03.05-.05.07-.23.25-.51.46-.94.98-.34.41-.31.46-.36.51-.64.54-1.84,1.61-2.62,2-.05.02-.03.07-.02.08.1.1.27.38.53.41.1.01.13-.01.13.09.01.23,0,.52-.07.67-.02.04.03.04.04.05.07.01.17-.01.23-.03.02,0,.09-.03.06.04-.12.28-.11.5-.1.68,0,.11.03.14.05.15.1.05.24.08.41.07.05,0,.07.03.07.05,0,.16.01.26.08.33.13.13.39.12.55.09.07,0,.1,0,.07.07-.09.21-.11.51-.05.74.01.05.06.06.1.04.31-.13.72-.39.98-.69.01-.02.08-.09.09,0,.02.22.08.36.14.51,0,.02.03.05.08.03.38-.15.95-.86,1.19-1.21.08-.12.25-.38.3-.51,0-.02.05-.06.07-.05.11.02.3.02.4,0,.07-.01.07-.03.08-.05.02-.06.04-.19.05-.28,0-.06.06-.04.08-.03.09.06.23.21.41.28.06.02.12,0,.15-.02.13-.11.29-.35.41-.56.01-.02.07-.04.1-.04.14,0,.28.02.52-.22.24-.26.21-.44.2-.61,0-.09.03-.05.08-.08.03-.02.08-.01.2-.35.22-.61.31-1.37.4-2.04.01-.08.04-.11.08-.12.4-.03.69-.15.92-.44.04-.05.07-.06.15-.08.44-.11.79-.32,1.27-.73.04-.03.05,0,.04.04-.05.17-.07.47-.04.56,0,.03.02.04.05.02.13-.12.26-.36.77-.54.05-.02.1-.04.1,0-.01.14-.03.44-.02.58,0,.06.02.07.08,0,.26-.28.8-.68,1.14-.83.06-.03.11-.02.14,0,.05.04.11.04.11.26,0,.06.04.02.06,0,.17-.13.58-.36.82-.42.06-.01.15,0,.24.04.06.03.08.04.1.09.03.07.05.05.09,0,.18-.18.45-.38.78-.47.05-.01.11-.01.14,0,.02.01.02.05.04.07.01.01.04.03.07,0,.07-.07.11-.09.15-.09.03,0,.06-.01.1.02.09.07.18.11.29.16.12.05.09.08.02.16-.2.22-.45.58-.45.58,0,0-.28.44-.15.83.04.13.12.38.57.4.12,0,.4-.05.6-.15.07-.03.08-.08-.02-.05-.14.03-.52.04-.54-.29-.01-.2,0-.48.61-1.06.05-.05.13-.17.23-.16.23.02.3-.02.56-.18.25-.16.18-.31.31-.34.05-.01.15,0,.19.05.05.08.05.11-.04.27-.17.27-.6.6-.63,1.11,0,.14.01.33.29.49.1.06.45.04.69-.11.05-.03.04-.07-.02-.04-.1.04-.45.12-.44-.33,0-.26.52-.8.75-1.02.01-.01.07-.04.08-.02.08.09.24.21.25.4,0,.11.01.12.07.08.18-.25.2-.44.18-.54-.01-.08.02-.09.04-.12.14-.12.51-.46.72-.41.14.03.32.24.38.8,0,.05.03.07.05.02.07-.22.21-.49.16-.84-.02-.17-.06-.35-.15-.43-.05-.04,0-.05.06-.06.1,0,.29.12.34.19.04.06.06.03.04-.03-.07-.25-.1-.72-.55-.88-.65-.23-.93.24-1.19.09-.07-.04-.22-.11-.32-.16-.28-.14-.48-.03-.6-.11-.09-.06-.21-.12-.32-.13-.16-.01-.34.21-.45.14-.52-.33-.92-.94-1.35-1.61-.06-.09.02-.17.02-.17,0,0,.87-1.06,3.15-.71,1.26.19,3.97.85,4.43,2.24.02.07.05.03.07,0,1.13-1.59.34-2.47,0-3.01-.42-.68-.63-1.4-1.47-2.15-.89-.81-2.54-2.03-3.23-2.87-.15-.18-.03-.59.09-.67.18-.12,1.35-.39,1.85-1.08.14-.19.07-.63.13-.83.07-.22.29-.59.29-.88,0-.3-.34-.42-.05-.83.33-.45.59-.3.85-.61.08-.09.16-.31.15-.42-.01-.13-.22-.16-.12-.23.23-.17.49-.49.5-.72,0-.06-.12-.16,0-.21.22-.11.43-.3.53-.46.07-.11,0-.2.04-.24.29-.23.95-.6,1.13-1.04.06-.12,0-.24.04-.29.48-.44,1.8-1.64,1.92-2.22,0-.04,0-.06-.04-.05-.07.02-.29.11-.14-.03.68-.66.99-1.32,1.15-3.11"/>
        <path class="cls-2" d="M23.35,30.38s.09.14.16.37c.03.1.17.27.24.35.06.06.14.11.34.1.05,0,.17-.05.26.03.16.15.19.14.06-.06-.26-.4-.62-.74-1.03-.87-.26-.09-.21-.03-.03.09Z"/>
        <path class="cls-2" d="M41.94,33.48h-2.95v-2h5.37v6.59c-.2.07-.45.15-.75.22-.3.08-.65.15-1.02.21-.38.06-.77.11-1.17.15-.4.04-.8.06-1.19.06-1.18,0-2.21-.16-3.1-.47-.88-.31-1.62-.76-2.21-1.33-.59-.57-1.03-1.25-1.32-2.04-.29-.79-.44-1.66-.44-2.62,0-.68.08-1.32.23-1.94.15-.62.38-1.19.68-1.71.3-.52.66-1,1.09-1.42.43-.42.91-.78,1.46-1.08.55-.3,1.15-.53,1.8-.69.65-.16,1.35-.24,2.1-.24.66,0,1.29.05,1.89.14s1.09.21,1.47.35v2.03c-.51-.16-1.03-.29-1.55-.37-.52-.09-1.05-.13-1.58-.13-.71,0-1.38.1-2.01.32-.62.21-1.16.52-1.62.94-.46.41-.82.92-1.08,1.53-.26.61-.39,1.3-.39,2.1,0,1.54.41,2.7,1.22,3.47.81.77,1.95,1.16,3.44,1.16.28,0,.56-.01.86-.04.3-.03.55-.07.78-.11v-3.05h0Z"/>
        <path class="cls-2" d="M52.23,30.85h-.2c-.71,0-1.34.1-1.89.32-.54.21-.96.54-1.25.97v6.33h-2.33v-9.46h1.93l.22,1.32h.04c.28-.48.66-.86,1.14-1.14.48-.28,1.06-.41,1.74-.41.24,0,.44.01.61.04v2.03Z"/>
        <path class="cls-2" d="M59.8,33.75c0-.5-.06-.94-.18-1.33-.12-.38-.28-.71-.49-.97-.21-.26-.46-.46-.76-.59-.29-.13-.62-.19-.96-.19s-.66.07-.95.19c-.29.13-.54.33-.75.59-.21.26-.37.58-.49.97-.12.38-.18.83-.18,1.33s.06.94.18,1.33c.12.38.28.7.5.96.21.26.47.45.76.59.29.13.61.2.96.2s.67-.07.96-.2c.29-.13.54-.33.75-.59.21-.26.37-.58.49-.96.12-.38.18-.83.18-1.33ZM62.21,33.75c0,.74-.11,1.42-.33,2.03-.22.61-.54,1.14-.96,1.57-.42.44-.92.77-1.51,1.01-.59.24-1.25.36-1.98.36s-1.42-.12-2.01-.36c-.59-.24-1.1-.57-1.51-1.01-.41-.44-.73-.96-.95-1.57-.22-.61-.33-1.29-.33-2.03s.11-1.42.33-2.03c.22-.61.54-1.14.96-1.57.42-.44.92-.77,1.51-1.01.59-.24,1.25-.36,1.98-.36s1.42.12,2.01.36c.59.24,1.1.57,1.51,1.01.41.44.73.96.95,1.57.22.61.33,1.29.33,2.03Z"/>
        <path class="cls-2" d="M67.95,38.71c-.96,0-1.75-.16-2.38-.48-.63-.32-1.11-.76-1.43-1.3-.17-.29-.3-.62-.38-.97-.08-.35-.12-.74-.12-1.17v-5.78h2.34v5.53c0,.32.02.59.07.82.05.23.12.43.21.6.16.29.38.5.67.64.29.14.63.21,1.03.21s.78-.08,1.08-.23c.3-.16.52-.39.68-.71.15-.31.23-.73.23-1.28v-5.58h2.33v5.78c0,.77-.14,1.42-.41,1.94-.15.3-.35.57-.59.82-.24.24-.52.45-.85.63-.32.17-.69.31-1.1.4-.41.09-.87.14-1.37.14"/>
        <path class="cls-2" d="M78.68,30.63c-.41,0-.79.1-1.16.3-.37.19-.69.45-.97.78v4.22c.1.11.22.22.36.33.14.11.29.21.46.3.17.09.36.17.57.22.21.06.42.09.65.09.36,0,.68-.08.96-.23.28-.15.52-.37.7-.65.19-.28.33-.61.43-1,.1-.39.15-.82.15-1.29,0-.51-.05-.95-.15-1.34-.1-.38-.25-.7-.43-.96s-.41-.45-.68-.58c-.26-.13-.55-.19-.88-.19M78.99,38.71c-.51,0-.98-.09-1.39-.28-.42-.18-.76-.42-1.04-.69h-.04c0,.13.01.31.02.55,0,.24,0,.5,0,.78v3.94h-2.33v-14h2.05l.1,1.06h.04c.29-.38.66-.69,1.11-.93.45-.24.98-.36,1.58-.36.52,0,1.03.09,1.53.29.5.19.95.49,1.34.88.39.4.7.9.93,1.5.23.61.35,1.32.35,2.16,0,.88-.13,1.64-.37,2.28-.25.64-.58,1.17-.98,1.59-.41.42-.86.73-1.35.93-.5.2-1.01.3-1.53.3"/>
        <path class="cls-2" d="M40.3,11.26c-.65,0-1.24.1-1.79.32-.55.21-1.02.52-1.41.92-.39.4-.7.9-.92,1.49-.22.59-.33,1.27-.33,2.03s.1,1.42.3,2c.2.57.49,1.05.86,1.44.38.38.83.67,1.37.87.54.19,1.15.29,1.84.29.49,0,.99-.04,1.51-.11.51-.08.99-.19,1.44-.34v2.03c-.45.13-.94.23-1.47.3-.53.07-1.07.11-1.63.11-1.1,0-2.07-.16-2.9-.47-.83-.31-1.53-.75-2.09-1.32-.56-.57-.98-1.25-1.26-2.04-.28-.79-.42-1.66-.42-2.62s.15-1.89.45-2.73c.3-.84.73-1.57,1.3-2.18.57-.62,1.27-1.1,2.13-1.45.85-.35,1.81-.53,2.89-.54.55,0,1.07.04,1.56.11.49.07.94.18,1.33.31v2c-.52-.16-1-.27-1.45-.34-.45-.06-.88-.09-1.31-.09"/>
        <path class="cls-2" d="M47.09,12.26c0,.48,0,.88-.02,1.19-.02.31-.04.59-.08.84h.04c.14-.18.3-.36.5-.54.2-.18.41-.34.65-.47.24-.13.51-.24.81-.32.3-.08.63-.12.99-.12.31,0,.61.03.91.09.29.06.57.16.82.28.26.13.49.29.7.5.21.2.39.45.53.73.12.24.21.52.27.83.06.31.09.68.09,1.12v5.99h-2.3v-5.69c0-.29-.01-.52-.04-.71-.03-.18-.07-.34-.14-.48-.14-.28-.33-.48-.58-.6-.25-.12-.54-.17-.86-.17-.45,0-.86.11-1.24.32-.38.2-.73.51-1.04.91v6.42h-2.3v-13.93h2.3v3.8h0Z"/>
        <path class="cls-2" d="M60.71,18.41c-.22-.05-.47-.1-.76-.14-.28-.04-.57-.06-.86-.06-.56,0-1.01.11-1.34.33-.33.22-.49.56-.49,1.01,0,.21.04.4.11.55.07.16.17.29.3.39.13.1.27.18.44.23.17.05.35.08.53.08.23,0,.45-.03.66-.09.21-.06.4-.14.57-.23.17-.09.33-.2.47-.31.14-.12.26-.23.36-.34v-1.42h0ZM60.9,21.4h-.04c-.13.13-.28.27-.47.41-.18.14-.39.28-.62.4-.23.13-.49.23-.78.3-.28.08-.59.11-.92.11-.45,0-.86-.07-1.25-.21-.39-.14-.72-.34-1-.6-.28-.26-.5-.57-.66-.94-.16-.37-.24-.78-.24-1.24,0-.5.09-.95.28-1.35.18-.4.44-.73.77-1.01.33-.27.72-.49,1.18-.63.46-.14.97-.22,1.52-.22.41,0,.78.03,1.13.08.34.05.64.11.9.18v-.37c0-.22-.04-.43-.11-.63-.07-.2-.19-.38-.36-.54-.16-.16-.38-.28-.65-.37-.27-.09-.59-.14-.97-.14-.47,0-.93.05-1.4.15-.47.1-.97.26-1.51.46v-1.78c.47-.2.97-.36,1.51-.47.53-.11,1.09-.17,1.67-.17.69,0,1.29.08,1.8.25.51.17.95.4,1.29.69.35.29.61.64.78,1.03.17.4.26.83.26,1.3v3.51c0,.62,0,1.14.02,1.59.01.44.03.84.04,1.18h-2.08l-.1-.99h0Z"/>
        <path class="cls-2" d="M70.78,14.87h-.19c-.7,0-1.33.1-1.86.31-.53.21-.95.53-1.24.96v6.24h-2.3v-9.32h1.9l.21,1.3h.04c.27-.47.65-.85,1.12-1.12s1.05-.41,1.71-.41c.23,0,.43.01.6.04v2h0Z"/>
        <path class="cls-2" d="M76.79,22.38c-.26.08-.57.14-.93.18-.36.05-.69.07-1,.07-.79,0-1.43-.13-1.94-.38-.5-.25-.86-.62-1.06-1.09-.15-.34-.22-.8-.22-1.38v-9.31h2.3v2.61h2.72v1.88h-2.72v4.53c0,.36.05.63.16.8.19.29.58.44,1.16.44.27,0,.53-.02.79-.06.26-.04.51-.09.74-.16v1.89h0Z"/>
        <path class="cls-2" d="M82.04,14.61c-.29,0-.55.05-.78.16-.23.11-.42.25-.59.43-.16.18-.3.4-.39.64-.1.24-.16.5-.19.78h3.7c0-.27-.04-.54-.11-.78-.07-.24-.18-.46-.33-.64-.14-.18-.33-.33-.54-.43-.22-.1-.47-.16-.76-.16M82.97,20.79c.45,0,.91-.05,1.4-.13.49-.09.98-.22,1.48-.38v1.82c-.3.13-.75.25-1.37.37-.61.11-1.25.17-1.91.17s-1.3-.09-1.9-.26c-.6-.17-1.12-.45-1.57-.82-.45-.38-.8-.87-1.06-1.47-.26-.6-.39-1.33-.39-2.2s.12-1.59.37-2.22c.25-.64.57-1.16.99-1.58s.89-.73,1.42-.94c.53-.21,1.09-.31,1.65-.31s1.14.09,1.65.27c.5.18.94.46,1.3.85.37.38.65.88.85,1.49.2.61.3,1.32.3,2.15,0,.32-.02.59-.03.82h-6.17c.03.43.13.8.29,1.1.16.3.37.55.64.74.26.19.57.33.92.41.35.09.73.13,1.14.13"/>
        <path class="cls-2" d="M93.59,14.87h-.19c-.7,0-1.33.1-1.86.31-.53.21-.95.53-1.24.96v6.24h-2.3v-9.32h1.9l.21,1.3h.04c.27-.47.65-.85,1.12-1.12s1.05-.41,1.71-.41c.23,0,.43.01.6.04v2h0Z"/>
        <path class="cls-2" d="M98.57,14.61c-.29,0-.55.05-.78.16-.23.11-.42.25-.59.43-.16.18-.3.4-.39.64-.1.24-.16.5-.19.78h3.7c0-.27-.04-.54-.11-.78-.07-.24-.19-.46-.33-.64-.14-.18-.33-.33-.54-.43-.22-.1-.47-.16-.76-.16M99.49,20.79c.45,0,.91-.05,1.4-.13.48-.09.98-.22,1.48-.38v1.82c-.3.13-.75.25-1.37.37-.61.11-1.25.17-1.91.17s-1.3-.09-1.9-.26c-.6-.17-1.12-.45-1.57-.82-.45-.38-.8-.87-1.06-1.47-.26-.6-.39-1.33-.39-2.2s.12-1.59.37-2.22c.25-.64.57-1.16.99-1.58.42-.42.89-.73,1.42-.94.54-.21,1.09-.31,1.65-.31s1.14.09,1.65.27c.5.18.93.46,1.3.85.37.38.65.88.85,1.49.2.61.31,1.32.31,2.15,0,.32-.02.59-.03.82h-6.17c.03.43.13.8.29,1.1.16.3.37.55.64.74.26.19.57.33.92.41.35.09.73.13,1.14.13"/>
        <path class="cls-2" d="M108.58,20.81c.23,0,.44-.03.65-.09.2-.06.39-.13.58-.23.18-.1.34-.2.48-.32.14-.12.26-.23.35-.34v-4.43c-.27-.22-.58-.4-.91-.54-.34-.14-.69-.22-1.07-.22-.24,0-.49.05-.75.14-.26.1-.5.26-.72.49-.22.23-.4.55-.55.96-.14.41-.22.93-.22,1.57,0,.94.18,1.67.55,2.19.36.53.9.79,1.61.8M104.05,17.91c0-.82.11-1.54.34-2.18.23-.64.54-1.18.93-1.61.39-.43.84-.76,1.35-.97.5-.21,1.03-.32,1.57-.32.25,0,.49.02.72.07.22.04.44.11.64.18.2.08.39.16.56.26.17.1.34.19.49.3h.02c0-.13-.01-.31-.01-.55,0-.23,0-.49,0-.76v-3.88h2.3v11.16c0,.62,0,1.14.02,1.59.01.44.03.84.04,1.18h-2.08l-.1-.99h-.04c-.14.16-.3.32-.49.47-.19.15-.4.29-.63.4-.23.11-.48.2-.76.27-.28.06-.57.1-.9.1-.51,0-1-.09-1.47-.27-.47-.18-.89-.46-1.26-.83-.37-.37-.67-.87-.89-1.47-.22-.61-.33-1.32-.33-2.14"/>
      </g>
    </g>
  </g>
</svg>