<svg viewBox="0.0000 0.0000 19.3626 19.3626" fill="none" xmlns="http://www.w3.org/2000/svg" x="0" y="0"><defs><clipPath id="clip0_111_3506">
<rect width="19.3626" height="19.3626" fill="white" transform="scale(1.00435)"/>
</clipPath></defs><g id="Social Icons" clip-path="url(#clip0_111_3506)">
<path id="Vector" d="M9.72343 1.75098C12.3214 1.75098 12.6291 1.76237 13.6508 1.80795C14.6003 1.84973 15.1131 2.00926 15.4549 2.14219C15.9069 2.31691 16.2336 2.52961 16.5716 2.86765C16.9134 3.20949 17.1223 3.53234 17.2971 3.98433C17.43 4.32617 17.5895 4.84272 17.6313 5.78848C17.6769 6.814 17.6883 7.12165 17.6883 9.71583C17.6883 12.3138 17.6769 12.6215 17.6313 13.6432C17.5895 14.5927 17.43 15.1055 17.2971 15.4473C17.1223 15.8993 16.9096 16.226 16.5716 16.564C16.2298 16.9058 15.9069 17.1148 15.4549 17.2895C15.1131 17.4224 14.5965 17.5819 13.6508 17.6237C12.6253 17.6693 12.3176 17.6807 9.72343 17.6807C7.12545 17.6807 6.81779 17.6693 5.79607 17.6237C4.84652 17.5819 4.33376 17.4224 3.99192 17.2895C3.53994 17.1148 3.21329 16.9021 2.87525 16.564C2.53341 16.2222 2.32451 15.8993 2.14979 15.4473C2.01685 15.1055 1.85733 14.5889 1.81555 13.6432C1.76997 12.6177 1.75857 12.31 1.75857 9.71583C1.75857 7.11785 1.76997 6.8102 1.81555 5.78848C1.85733 4.83892 2.01685 4.32617 2.14979 3.98433C2.32451 3.53234 2.53721 3.20569 2.87525 2.86765C3.21709 2.52581 3.53994 2.31691 3.99192 2.14219C4.33376 2.00926 4.85032 1.84973 5.79607 1.80795C6.81779 1.76237 7.12545 1.75098 9.72343 1.75098ZM9.72343 0C7.08367 0 6.75322 0.0113946 5.71631 0.0569732C4.6832 0.102552 3.97293 0.269673 3.35762 0.508961C2.71572 0.759643 2.17258 1.09009 1.63323 1.63323C1.09009 2.17258 0.759643 2.71572 0.508961 3.35382C0.269673 3.97293 0.102552 4.6794 0.0569732 5.71251C0.0113946 6.75322 0 7.08367 0 9.72343C0 12.3632 0.0113946 12.6936 0.0569732 13.7305C0.102552 14.7637 0.269673 15.4739 0.508961 16.0892C0.759643 16.7311 1.09009 17.2743 1.63323 17.8136C2.17258 18.353 2.71572 18.6872 3.35382 18.9341C3.97293 19.1734 4.6794 19.3405 5.71251 19.3861C6.74943 19.4317 7.07987 19.4431 9.71963 19.4431C12.3594 19.4431 12.6898 19.4317 13.7267 19.3861C14.7599 19.3405 15.4701 19.1734 16.0854 18.9341C16.7235 18.6872 17.2667 18.353 17.806 17.8136C18.3454 17.2743 18.6796 16.7311 18.9265 16.093C19.1658 15.4739 19.3329 14.7675 19.3785 13.7343C19.4241 12.6974 19.4355 12.367 19.4355 9.72723C19.4355 7.08747 19.4241 6.75702 19.3785 5.72011C19.3329 4.687 19.1658 3.97673 18.9265 3.36142C18.6872 2.71572 18.3568 2.17258 17.8136 1.63323C17.2743 1.09389 16.7311 0.759643 16.093 0.512759C15.4739 0.273471 14.7675 0.10635 13.7343 0.0607714C12.6936 0.0113946 12.3632 0 9.72343 0Z" fill="currentColor"/>
<path id="Vector_2" d="M9.72413 4.72899C6.96662 4.72899 4.72948 6.96613 4.72948 9.72364C4.72948 12.4811 6.96662 14.7183 9.72413 14.7183C12.4816 14.7183 14.7188 12.4811 14.7188 9.72364C14.7188 6.96613 12.4816 4.72899 9.72413 4.72899ZM9.72413 12.9635C7.93517 12.9635 6.48425 11.5126 6.48425 9.72364C6.48425 7.93468 7.93517 6.48376 9.72413 6.48376C11.5131 6.48376 12.964 7.93468 12.964 9.72364C12.964 11.5126 11.5131 12.9635 9.72413 12.9635Z" fill="currentColor"/>
<path id="Vector_3" d="M16.0811 4.53122C16.0811 5.17692 15.557 5.69727 14.9151 5.69727C14.2694 5.69727 13.749 5.17312 13.749 4.53122C13.749 3.88552 14.2732 3.36517 14.9151 3.36517C15.557 3.36517 16.0811 3.88932 16.0811 4.53122Z" fill="currentColor"/>
</g></svg>